<svg>
        <symbol viewBox="0 0 448 512" id="instagram">
            <path d="M224.1 141c-63.6 0-114.9 51.3-114.9 114.9s51.3 114.9 114.9 114.9S339 319.5 339 255.9 287.7 141 224.1 141zm0 189.6c-41.1 0-74.7-33.5-74.7-74.7s33.5-74.7 74.7-74.7 74.7 33.5 74.7 74.7-33.6 74.7-74.7 74.7zm146.4-194.3c0 14.9-12 26.8-26.8 26.8-14.9 0-26.8-12-26.8-26.8s12-26.8 26.8-26.8 26.8 12 26.8 26.8zm76.1 27.2c-1.7-35.9-9.9-67.7-36.2-93.9-26.2-26.2-58-34.4-93.9-36.2-37-2.1-147.9-2.1-184.9 0-35.8 1.7-67.6 9.9-93.9 36.1s-34.4 58-36.2 93.9c-2.1 37-2.1 147.9 0 184.9 1.7 35.9 9.9 67.7 36.2 93.9s58 34.4 93.9 36.2c37 2.1 147.9 2.1 184.9 0 35.9-1.7 67.7-9.9 93.9-36.2 26.2-26.2 34.4-58 36.2-93.9 2.1-37 2.1-147.8 0-184.8zM398.8 388c-7.8 19.6-22.9 34.7-42.6 42.6-29.5 11.7-99.5 9-132.1 9s-102.7 2.6-132.1-9c-19.6-7.8-34.7-22.9-42.6-42.6-11.7-29.5-9-99.5-9-132.1s-2.6-102.7 9-132.1c7.8-19.6 22.9-34.7 42.6-42.6 29.5-11.7 99.5-9 132.1-9s102.7-2.6 132.1 9c19.6 7.8 34.7 22.9 42.6 42.6 11.7 29.5 9 99.5 9 132.1s2.7 102.7-9 132.1z" fill="#000000"></path>
        </symbol>

        <symbol viewBox="0 0 448 512" id="facebook">
            <path d="m279.14 288 14.22-92.66h-88.91v-60.13c0-25.35 12.42-50.06 52.24-50.06h40.42V6.26S260.43 0 225.36 0c-73.22 0-121.08 44.38-121.08 124.72v70.62H22.89V288h81.39v224h100.17V288z" fill="#000000"/>
        </symbol>

        <symbol viewBox="0 0 448 512" id="twitter">
           <path d="M459.37 151.716c.325 4.548.325 9.097.325 13.645 0 138.72-105.583 298.558-298.558 298.558-59.452 0-114.68-17.219-161.137-47.106 8.447.974 16.568 1.299 25.34 1.299 49.055 0 94.213-16.568 130.274-44.832-46.132-.975-84.792-31.188-98.112-72.772 6.498.974 12.995 1.624 19.818 1.624 9.421 0 18.843-1.3 27.614-3.573-48.081-9.747-84.143-51.98-84.143-102.985v-1.299c13.969 7.797 30.214 12.67 47.431 13.319-28.264-18.843-46.781-51.005-46.781-87.391 0-19.492 5.197-37.36 14.294-52.954 51.655 63.675 129.3 105.258 216.365 109.807-1.624-7.797-2.599-15.918-2.599-24.04 0-57.828 46.782-104.934 104.934-104.934 30.213 0 57.502 12.67 76.67 33.137 23.715-4.548 46.456-13.32 66.599-25.34-7.798 24.366-24.366 44.833-46.132 57.827 21.117-2.273 41.584-8.122 60.426-16.243-14.292 20.791-32.161 39.308-52.628 54.253z" fill="#000000"/>
        </symbol>  

        <symbol id="phone" width="20" height="19" viewBox="0 0 20 19"  xmlns="http://www.w3.org/2000/svg">
            <path d="M13.1225 13.327L14.7379 11.7116C14.9554 11.4967 15.2307 11.3496 15.5303 11.2882C15.8298 11.2267 16.1408 11.2536 16.4254 11.3654L18.3941 12.1515C18.6817 12.2682 18.9283 12.4675 19.1029 12.7242C19.2774 12.9808 19.3721 13.2834 19.3749 13.5938V17.1996C19.3732 17.4107 19.3288 17.6194 19.2444 17.8129C19.16 18.0064 19.0373 18.1809 18.8837 18.3257C18.73 18.4706 18.5487 18.5829 18.3505 18.6558C18.1524 18.7287 17.9415 18.7608 17.7307 18.7501C3.93494 17.8919 1.15128 6.20918 0.624838 1.73801C0.6004 1.51845 0.622729 1.2962 0.690354 1.08588C0.757979 0.875564 0.869369 0.681949 1.0172 0.517773C1.16502 0.353597 1.34593 0.222582 1.54803 0.133345C1.75013 0.0441085 1.96883 -0.00132632 2.18975 2.94729e-05H5.67293C5.98375 0.000949514 6.2872 0.094838 6.54423 0.269619C6.80126 0.444399 7.00012 0.692079 7.11524 0.980802L7.9013 2.94956C8.01687 3.23302 8.04635 3.54425 7.98607 3.84438C7.92579 4.1445 7.77842 4.42021 7.56236 4.63706L5.94697 6.25245C5.94697 6.25245 6.87726 12.5481 13.1225 13.327Z" fill="#331A2F"/>
        </symbol>
  
    </svg>