<svg aria-hidden="true" style="position: absolute; width: 0; height: 0; overflow: hidden;" version="1.1" xmlns="http://www.w3.org/2000/svg" xmlns:xlink="http://www.w3.org/1999/xlink">
<defs>
<symbol id="icon-bclose" viewBox="0 0 32 32">
<path fill="#fff" style="fill: var(--color1, #fff)" d="M1.143 0l30.857 30.857-1.143 1.143-30.857-30.857 1.143-1.143z"></path>
<path fill="#fff" style="fill: var(--color1, #fff)" d="M0.002 30.858l30.857-30.857 1.143 1.143-30.857 30.857-1.143-1.143z"></path>
</symbol>
<symbol id="icon-burger" viewBox="0 0 48 32">
<path fill="#cf51ce" style="fill: var(--color2, #cf51ce)" d="M2.286 0h43.429c1.262 0 2.286 1.023 2.286 2.286s-1.023 2.286-2.286 2.286h-43.429c-1.262 0-2.286-1.023-2.286-2.286s1.023-2.286 2.286-2.286z"></path>
<path fill="#cf51ce" style="fill: var(--color2, #cf51ce)" d="M2.286 13.507h43.429c1.262 0 2.286 1.023 2.286 2.286s-1.023 2.286-2.286 2.286h-43.429c-1.262 0-2.286-1.023-2.286-2.286s1.023-2.286 2.286-2.286z"></path>
<path fill="#cf51ce" style="fill: var(--color2, #cf51ce)" d="M13.714 27.429h32c1.262 0 2.286 1.023 2.286 2.286s-1.023 2.286-2.286 2.286h-32c-1.262 0-2.286-1.023-2.286-2.286s1.023-2.286 2.286-2.286z"></path>
</symbol>
<symbol id="icon-creators" viewBox="0 0 32 32">
<path fill="#fff" style="fill: var(--color1, #fff)" d="M15.642 31.954c-0.593-0.137-1.141-0.32-1.506-0.822-0.228-0.32-0.411-0.73-0.593-1.096-0.091-0.183-0.137-0.274-0.32-0.32-1.187-0.228-2.374-0.639-3.469-1.187-1.735-0.867-3.241-2.054-4.474-3.561-0.137-0.183-0.274-0.183-0.457-0.137-1.141 0.411-2.374-0.091-2.967-1.141-0.593-1.096-0.365-2.419 0.639-3.15 0.183-0.137 0.228-0.274 0.137-0.502-0.822-2.693-0.822-5.432 0-8.126 0.046-0.183 0.046-0.32-0.137-0.456-1.004-0.73-1.278-2.054-0.685-3.15s1.826-1.552 3.013-1.141c0.228 0.091 0.32 0 0.457-0.137 1.233-1.506 2.739-2.693 4.474-3.561 1.050-0.548 2.191-0.913 3.332-1.141 0.274-0.046 0.457-0.137 0.548-0.502 0.183-1.096 1.233-1.826 2.374-1.826s2.145 0.822 2.374 1.917c0.046 0.274 0.183 0.365 0.411 0.411 1.872 0.365 3.561 1.096 5.113 2.191 1.050 0.73 1.963 1.552 2.739 2.511 0.137 0.183 0.274 0.228 0.502 0.137 1.096-0.411 2.374 0.091 2.967 1.096 0.593 1.096 0.365 2.419-0.593 3.15-0.183 0.137-0.228 0.274-0.183 0.502 0.822 2.693 0.822 5.432 0 8.126-0.046 0.183-0.046 0.32 0.137 0.457 0.913 0.685 1.233 1.963 0.776 3.013-0.502 1.096-1.689 1.735-2.785 1.415-0.502-0.137-0.73 0-1.050 0.365-2.009 2.282-4.565 3.743-7.532 4.382-0.274 0.046-0.456 0.183-0.502 0.502-0.274 0.959-0.913 1.506-1.826 1.78-0.091 0-0.137 0.046-0.228 0.046-0.274-0.046-0.457-0.046-0.685-0.046zM15.961 8.993c-3.835 0-6.984 3.15-6.984 6.984s3.15 6.984 6.984 6.984 6.984-3.15 6.984-6.984c0-3.835-3.15-6.984-6.984-6.984zM13.588 3.241c-3.15 0.593-5.706 2.146-7.715 4.611 0.548 0.685 0.73 1.415 0.548 2.237 0 0.091 0.091 0.183 0.137 0.228 0.593 0.32 1.187 0.639 1.78 0.959 0.274 0.137 0.548 0.32 0.822 0.456 1.643-2.419 3.88-3.743 6.802-3.743s5.113 1.369 6.756 3.743c0.776-0.411 1.506-0.822 2.237-1.233 0.365-0.183 0.593-0.365 0.502-0.867-0.137-0.685 0.137-1.278 0.593-1.826-2.009-2.465-4.565-4.017-7.715-4.611-0.32 0.959-0.959 1.506-1.917 1.735 0 0.685 0 1.369 0 2.009-0.32 0-0.639 0-1.004 0 0-0.685 0-1.369 0-2.009-0.867-0.228-1.506-0.776-1.826-1.689zM5.873 24.103c2.054 2.465 4.565 4.017 7.715 4.611 0.32-0.913 0.959-1.506 1.917-1.735 0-0.685 0-1.369 0-2.009 0.365 0 0.639 0 1.004 0 0 0.685 0 1.369 0 2.009 0.959 0.228 1.552 0.822 1.872 1.735 3.15-0.639 5.706-2.146 7.715-4.611-0.593-0.913-0.639-1.187-0.548-2.237 0-0.091-0.046-0.183-0.091-0.228-0.867-0.502-1.78-0.959-2.693-1.461-1.643 2.419-3.88 3.743-6.802 3.743s-5.158-1.369-6.802-3.743c-0.913 0.502-1.78 0.959-2.648 1.461-0.046 0.046-0.137 0.137-0.091 0.228 0.183 0.867-0.046 1.598-0.548 2.237zM8.703 19.31c-0.959-2.237-0.959-4.474 0-6.71-0.959-0.502-1.872-1.050-2.83-1.552-0.639 0.685-1.369 0.959-2.282 0.867-0.822 2.693-0.822 5.341 0 8.034 0.913-0.091 1.643 0.228 2.282 0.867 0.959-0.457 1.872-0.959 2.83-1.506zM26.050 20.862c0.593-0.593 1.278-0.959 2.145-0.913 0.046 0 0.183-0.137 0.228-0.183 0.456-1.461 0.639-2.922 0.548-4.474-0.046-1.141-0.228-2.237-0.639-3.332-0.867 0.091-1.598-0.183-2.191-0.776-0.046-0.046-0.183-0.046-0.274 0-0.411 0.228-0.822 0.457-1.187 0.639-0.456 0.274-0.959 0.502-1.415 0.776 0.959 2.237 0.959 4.474 0 6.71 0.913 0.548 1.826 1.050 2.785 1.552zM15.961 3.971c0.822 0 1.506-0.685 1.506-1.461 0-0.822-0.639-1.506-1.461-1.506s-1.506 0.685-1.506 1.506c-0.046 0.776 0.639 1.461 1.461 1.461zM5.462 9.495c0-0.822-0.685-1.506-1.506-1.506s-1.506 0.685-1.506 1.506c0 0.822 0.685 1.461 1.506 1.461 0.867 0 1.506-0.685 1.506-1.461zM29.428 9.495c0-0.822-0.685-1.506-1.461-1.506-0.822 0-1.506 0.639-1.506 1.461s0.685 1.506 1.506 1.506c0.776 0.046 1.461-0.639 1.461-1.461zM5.462 22.459c0-0.822-0.685-1.506-1.506-1.506s-1.506 0.685-1.506 1.506c0 0.822 0.685 1.506 1.506 1.506 0.867 0 1.506-0.685 1.506-1.506zM29.428 22.459c0-0.822-0.685-1.506-1.461-1.506-0.822 0-1.506 0.639-1.506 1.461s0.685 1.506 1.506 1.506c0.776 0.046 1.461-0.639 1.461-1.461zM15.961 27.983c-0.822 0-1.506 0.685-1.506 1.461 0 0.822 0.685 1.506 1.506 1.506s1.506-0.685 1.506-1.506c0-0.822-0.685-1.461-1.506-1.461z"></path>
<path fill="#fff" style="fill: var(--color1, #fff)" d="M14.363 15.383c-0.959-0.867-1.096-1.917-0.822-3.059 0.274-1.187 1.461-1.963 2.602-1.872 1.324 0.137 2.191 1.141 2.282 2.465 0.046 0.913-0.137 1.735-0.913 2.419 0.137 0.091 0.274 0.228 0.411 0.32 0.73 0.456 1.506 0.913 2.237 1.324 0.183 0.091 0.274 0.228 0.228 0.457 0 0.456 0 0.913 0 1.324 0.046 0.593-0.274 1.004-0.776 1.187s-1.050 0.32-1.552 0.365c-1.643 0.137-3.332 0.183-4.976-0.091-0.274-0.046-0.548-0.137-0.822-0.228-0.548-0.228-0.867-0.639-0.822-1.233 0-0.456 0-0.913 0-1.369 0-0.183 0.046-0.274 0.183-0.365 0.776-0.456 1.506-0.913 2.282-1.369 0.183-0.046 0.32-0.137 0.456-0.274zM15.687 19.492c0.913-0.046 1.552-0.046 2.191-0.091 0.411-0.046 0.867-0.137 1.278-0.228 0.228-0.046 0.274-0.183 0.274-0.411 0.137-0.73-0.137-1.233-0.867-1.506-0.091-0.046-0.183-0.091-0.228-0.137-0.548-0.365-1.096-0.776-1.643-1.141-0.046-0.046-0.183-0.046-0.274-0.046-0.365 0-0.685 0-1.050 0-0.091 0-0.228-0-0.274 0.046-0.593 0.639-1.369 1.004-2.1 1.415-0.456 0.274-0.685 0.548-0.593 1.096 0.046 0.639 0.046 0.639 0.639 0.822 0.046 0 0.046 0 0.091 0 1.004 0.046 1.917 0.137 2.556 0.183zM14.455 13.192c0 0.137 0 0.274 0 0.411 0.046 0.776 0.685 1.324 1.415 1.369s1.415-0.456 1.506-1.187c0.046-0.411 0.046-0.822-0.046-1.187-0.228-0.913-1.324-1.369-2.145-0.913-0.502 0.32-0.73 0.867-0.73 1.506z"></path>
<path fill="#fff" style="fill: var(--color1, #fff)" d="M16.464 2.966c-0.32 0-0.639 0-0.959 0 0-0.32 0-0.639 0-0.959 0.32 0 0.639 0 0.959 0 0 0.32 0 0.639 0 0.959z"></path>
<path fill="#fff" style="fill: var(--color1, #fff)" d="M4.457 9.951c-0.32 0-0.639 0-0.959 0 0-0.32 0-0.639 0-0.959 0.32 0 0.639 0 0.959 0 0 0.32 0 0.639 0 0.959z"></path>
<path fill="#fff" style="fill: var(--color1, #fff)" d="M28.423 8.993c0 0.32 0 0.639 0 0.959-0.32 0-0.639 0-0.959 0 0-0.32 0-0.639 0-0.959 0.32 0 0.639 0 0.959 0z"></path>
<path fill="#fff" style="fill: var(--color1, #fff)" d="M4.457 22.961c-0.32 0-0.639 0-0.959 0 0-0.32 0-0.639 0-0.959 0.32 0 0.639 0 0.959 0 0 0.32 0 0.639 0 0.959z"></path>
<path fill="#fff" style="fill: var(--color1, #fff)" d="M28.423 22.003c0 0.32 0 0.639 0 0.959-0.32 0-0.639 0-0.959 0 0-0.32 0-0.639 0-0.959 0.32 0 0.639 0 0.959 0z"></path>
<path fill="#fff" style="fill: var(--color1, #fff)" d="M16.464 28.987c0 0.32 0 0.639 0 0.959-0.32 0-0.639 0-0.959 0 0-0.32 0-0.639 0-0.959 0.32 0 0.593 0 0.959 0z"></path>
</symbol>
<symbol id="icon-dd-arrow" viewBox="0 0 36 32">
<path d="M21.058 26.789c-1.521 2.416-5.043 2.416-6.564 0l-13.128-20.843c-1.627-2.583 0.229-5.946 3.282-5.946h26.255c3.053 0 4.909 3.363 3.282 5.946l-13.128 20.843z"></path>
</symbol>
<symbol id="icon-friends" viewBox="0 0 32 32">
<path fill="#fff" style="fill: var(--color1, #fff)" d="M8.896 31.436c-0.58-0.258-0.838-0.644-0.773-1.289 0-0.322 0-0.709 0-1.031-0.129 0-0.258 0-0.387 0-1.547 0-3.029 0-4.576 0-0.773 0-1.16-0.387-1.16-1.16 0-0.322 0-0.645 0-0.967s0.193-0.516 0.451-0.516 0.451 0.193 0.451 0.516c0 0.322 0 0.645 0 0.967 0 0.129 0.064 0.193 0.193 0.193 1.676 0 3.287 0 5.027 0 0-1.031 0-1.998 0-2.965-1.225-0.773-1.611-1.289-1.805-2.707-0.773 0-1.547-0.064-2.256 0-0.644 0.064-1.096 0.773-1.16 1.482 0 0.322 0 0.58 0 0.902s-0.193 0.516-0.451 0.516-0.451-0.193-0.451-0.516c0-0.322 0-0.709 0-1.031 0.064-0.773 0.451-1.418 1.096-1.869 0.064-0.064 0.129-0.064 0.193-0.129-0.258-0.838-0.58-1.611-0.773-2.385-1.031-4.125-0.387-7.927 1.998-11.472 0.129-0.193 0.193-0.322 0.064-0.58-0.322-0.645-0.193-1.418 0.322-1.934s1.225-0.709 1.933-0.387c0.129 0.129 0.258 0.064 0.387-0.064 0.773-0.516 1.482-1.031 2.256-1.547 0.322-0.193 0.58-0.129 0.709 0.129s0 0.451-0.258 0.645c-0.709 0.516-1.418 0.967-2.127 1.482-0.129 0.064-0.129 0.193-0.064 0.322 0.258 0.644 0.129 1.289-0.322 1.74-0.451 0.516-1.031 0.709-1.74 0.516-0.193-0.064-0.258 0-0.387 0.129-1.289 1.869-2.062 3.931-2.256 6.252-0.258 2.32 0.129 4.511 1.031 6.638 0.064 0.193 0.193 0.258 0.451 0.258 0.902 0 1.805 0 2.642 0 0.064-0.258 0-0.387-0.129-0.516-0.773-0.645-1.289-1.418-1.418-2.385 0-0.193-0.064-0.258-0.258-0.322-1.16-0.322-1.547-1.74-0.709-2.642 0.064-0.064 0.129-0.258 0.129-0.387 0-0.967 0-1.869 0-2.836 0-1.418 0.902-2.449 2.191-2.707 0.193-0.064 0.451-0.064 0.644-0.064 0.967 0 1.933 0 2.9 0 0.645 0 1.289 0.193 1.805 0.645 0.064 0.064 0.193 0.064 0.258 0.064 0.58-0.258 1.16-0.322 1.805-0.322 0.322 0 0.58 0 0.902 0 0.258 0 0.451 0.193 0.516 0.451 0 0.258-0.193 0.451-0.516 0.451-0.451 0-0.902 0-1.353 0-1.16 0-2.127 0.902-2.191 2.062-0.064 0.967 0 1.933 0 2.9 0 0.064 0 0.064 0 0.129 0.258 0.064 0.258-0.064 0.322-0.258 0.129-0.709 0.387-1.353 0.773-1.933 0.258-0.322 0.387-0.387 0.773-0.258 1.225 0.387 2.385 0.709 3.674 0.838 0.322 0 0.709 0 1.031-0.064 0.193-0.064 0.451-0.193 0.58-0.322 0.258-0.258 0.58-0.258 0.773 0.064 0.322 0.516 0.58 1.096 0.644 1.676 0 0.129 0.064 0.322 0.258 0.258 0-0.064 0-0.129 0-0.193 0-0.644 0-1.289 0-1.933 0-0.322-0.064-0.516-0.451-0.516-0.258-0.064-0.387-0.258-0.387-0.516 0-0.516-0.193-0.902-0.516-1.289-0.387-0.451-0.902-0.644-1.418-0.644-0.193 0-0.387 0-0.516 0-0.258 0-0.451-0.193-0.451-0.451s0.193-0.451 0.451-0.451c0.709-0.064 1.418 0.064 1.998 0.387 0.645-0.644 1.418-0.838 2.256-0.773 0.967 0 1.869 0 2.836 0 1.225 0 2.191 0.773 2.514 1.933 0 0.064 0.064 0.193 0.193 0.258 0.387 0.258 0.58 0.645 0.58 1.096 0 0.709 0 1.482 0 2.191 0 0.129 0.064 0.322 0.193 0.387 0.838 0.902 0.451 2.256-0.709 2.642-0.193 0.064-0.193 0.129-0.258 0.258-0.193 0.967-0.644 1.805-1.418 2.449-0.129 0.064-0.129 0.258-0.258 0.387l0.064 0.064c0.451 0 0.838 0 1.289 0s0.967 0 1.418 0c0.258 0 0.322-0.064 0.451-0.258 0.902-2.127 1.225-4.318 1.031-6.574s-0.967-4.318-2.191-6.187c-0.129-0.193-0.258-0.258-0.451-0.193-0.644 0.193-1.225 0-1.676-0.516s-0.58-1.096-0.322-1.74c-0.064 0-0.129-0.129-0.258-0.258-1.869-1.482-3.996-2.449-6.38-2.836-0.258-0.064-0.387 0-0.516 0.258-0.645 1.16-2.32 1.096-2.965 0-0.129-0.193-0.258-0.258-0.451-0.193-0.773 0.193-1.547 0.387-2.32 0.58-0.129 0.064-0.387 0.064-0.516 0s-0.258-0.258-0.193-0.387c0.064-0.129 0.193-0.387 0.322-0.387 0.773-0.258 1.482-0.387 2.256-0.58 0.064 0 0.064 0 0.129 0 0.387 0 0.58-0.129 0.709-0.516 0.322-0.773 0.902-1.096 1.676-1.096 0.709 0.064 1.289 0.387 1.547 1.096 0.129 0.258 0.258 0.322 0.516 0.387 2.578 0.387 4.834 1.353 6.832 3.029 0.193 0.129 0.322 0.193 0.58 0.064 0.644-0.258 1.418-0.064 1.869 0.451s0.58 1.289 0.258 1.933c-0.064 0.129-0.129 0.258 0 0.451 2.9 4.318 3.287 8.894 1.353 13.728 0 0.064-0.064 0.129-0.064 0.193 0.129 0.064 0.193 0.129 0.322 0.258 0.645 0.516 0.967 1.16 0.967 1.998 0 1.289 0 2.642 0 3.931 0 0.773-0.387 1.16-1.16 1.16-1.547 0-3.029 0-4.576 0-0.129 0-0.258 0-0.387 0 0 0.387 0 0.709 0 1.031 0.064 0.645-0.193 1.031-0.773 1.289-4.963-0.064-9.796-0.064-14.694-0.064zM19.466 24.088c-0.193 2.062-1.74 3.158-3.222 3.158-0.773 0-1.418-0.193-1.998-0.709-0.838-0.644-1.225-1.482-1.289-2.513-0.709 0-1.353 0-2.062 0-1.16 0-1.869 0.709-1.869 1.869 0 1.418 0 2.836 0 4.254 0 0.258 0.064 0.387 0.387 0.387 2.642 0 5.285 0 7.927 0 1.933 0 3.867 0 5.8 0 0.129 0 0.322 0.064 0.322-0.193 0-1.547 0-3.029 0-4.576 0-0.838-0.709-1.611-1.482-1.611-0.902-0.129-1.676-0.064-2.514-0.064zM19.272 15.259c-2.062 0.709-3.867-0.064-5.736-0.516-0.064 0.064-0.129 0.129-0.129 0.258-0.322 0.451-0.451 0.967-0.451 1.482 0 1.096-0.064 2.191 0.064 3.222 0.193 1.676 1.74 2.9 3.416 2.771s3.029-1.482 3.029-3.158c0-0.967 0-1.933 0-2.9 0-0.387-0.129-0.773-0.193-1.16zM6.705 14.292c-0.064 0.387-0.193 0.709-0.258 1.031-0.064 0.967-0.064 1.998 0 2.965 0.129 1.74 1.676 2.9 3.351 2.642 0.838-0.129 1.547-0.644 1.998-1.353-0.064 0-0.129-0.064-0.129-0.064-1.096-0.451-1.482-1.482-0.902-2.514 0-0.064 0.064-0.064 0.064-0.129 0-0.644 0-1.225 0-1.869-1.418 0-2.707-0.322-4.125-0.709zM29.455 28.213c0-1.482 0-2.9 0-4.318 0-0.644-0.516-1.289-1.16-1.353-0.773-0.064-1.482 0-2.256 0-0.193 1.418-0.58 1.998-1.805 2.707 0 1.031 0 1.998 0 2.965 1.805 0 3.48 0 5.22 0zM20.626 19.512c0 0.064 0.064 0.129 0.064 0.129 0.645 0.967 1.934 1.482 3.029 1.225 1.225-0.322 2.127-1.289 2.191-2.514 0.064-0.902 0.064-1.869 0-2.771 0-0.322-0.129-0.709-0.129-1.031-1.482 0.709-2.836 0.258-4.254 0 0 0.645 0 1.289 0 1.934 0 0.193 0.064 0.322 0.129 0.451 0.451 0.902 0.129 1.998-0.838 2.385-0.064 0.129-0.129 0.193-0.193 0.193zM20.046 11.134c0.193 0.451 0.387 0.902 0.58 1.353 0.064 0.193 0.129 0.258 0.258 0.387 0.193 0.193 0.387 0.387 0.58 0.645 0.064 0.064 0.193 0.193 0.258 0.258 0.451 0.129 0.838 0.258 1.289 0.258 0.644 0.064 1.225 0.064 1.869 0 0.193 0 0.322-0.258 0.451-0.387s0.258-0.322 0.387-0.322c0.129 0 0.322 0.129 0.451 0.258 0.193 0.258 0.322 0.516 0.451 0.838 0-0.516 0-0.967 0-1.353 0-0.064-0.129-0.193-0.193-0.258-0.322-0.064-0.451-0.258-0.451-0.58-0.064-0.838-0.709-1.482-1.547-1.482-1.096 0-2.191 0-3.287 0-0.451-0.064-0.838 0.129-1.096 0.387zM5.738 14.292c0.129-0.193 0.258-0.387 0.322-0.58 0.258-0.387 0.387-0.451 0.838-0.322 0.644 0.193 1.289 0.322 1.933 0.516 0.644 0.129 1.353 0.258 2.062 0.129-0.064-1.096 0.064-2.127 0.838-2.9-0.322-0.258-0.644-0.387-1.031-0.387-1.096 0-2.127 0-3.222 0-0.967 0-1.676 0.644-1.74 1.611-0.064 0.58 0 1.289 0 1.934zM17.532 23.186c-1.031 0.258-1.353 0.322-2.707 0 0.193 0.773-0.258 0.967-0.902 0.838 0.064 1.289 1.096 2.32 2.385 2.32 1.289-0.064 2.32-1.096 2.256-2.256-0.258-0.064-0.58-0.064-0.709-0.193-0.258-0.129-0.258-0.451-0.322-0.709zM8.445 24.346c0.322-0.322 0.644-0.58 0.967-0.838 0.516-0.322 1.031-0.387 1.676-0.387 0.129 0 0.258-0.064 0.258-0.129 0.064-0.129 0.064-0.322 0.129-0.58-0.58 0.064-0.967-0.064-0.902-0.773-0.838 0.258-1.611 0.258-2.385 0.064-0.064 0.258-0.129 0.516-0.258 0.645s-0.451 0.129-0.645 0.193c-0.064 0.709 0.451 1.482 1.16 1.805zM21.85 21.704c-0.129 0.645-0.129 0.645-0.838 0.773-0.064 0.58 0 0.644 0.58 0.644 0.709 0 1.353 0.193 1.869 0.709 0.193 0.129 0.322 0.322 0.516 0.516 0.773-0.322 1.353-1.225 1.225-1.869-0.709-0.064-0.773 0-0.838-0.773-0.902 0.258-1.676 0.193-2.513 0zM6.125 7.525c0.451 0 0.838-0.387 0.838-0.838s-0.387-0.838-0.773-0.838c-0.451 0-0.838 0.322-0.838 0.773-0.064 0.516 0.322 0.902 0.773 0.902zM16.179 3.014c0.451 0 0.838-0.387 0.838-0.838s-0.387-0.773-0.838-0.838c-0.451 0-0.838 0.387-0.838 0.838 0.064 0.516 0.387 0.838 0.838 0.838zM26.297 7.525c0.451 0 0.838-0.387 0.838-0.838s-0.322-0.773-0.773-0.838c-0.451 0-0.838 0.322-0.838 0.773-0.064 0.516 0.322 0.902 0.773 0.902zM13.859 23.122c0.064-0.387-0.064-0.644-0.322-0.644-0.387-0.064-0.773 0-1.225 0 0 0.258-0.064 0.451-0.064 0.644 0.58 0 1.096 0 1.611 0zM20.046 22.477c-0.322 0-0.644 0-0.967 0-0.451 0-0.644 0.193-0.516 0.644 0.516 0 1.031 0 1.611 0-0.064-0.258-0.064-0.451-0.129-0.644zM20.948 21.51c0-0.58-0.58-0.644-0.773-1.031-0.193 0.387-0.322 0.645-0.516 1.031 0.451 0 0.838 0 1.289 0zM12.699 21.51c-0.193-0.322-0.322-0.644-0.516-0.967-0.193 0.193-0.322 0.322-0.516 0.451s-0.387 0.258-0.258 0.516c0.516 0 0.902 0 1.289 0zM11.99 18.61c0-0.516 0-0.967 0-1.482-0.387 0.064-0.58 0.322-0.58 0.644 0 0.387 0.193 0.709 0.58 0.838zM20.368 17.128c0 0.516 0 0.967 0 1.482 0.387-0.064 0.58-0.387 0.58-0.709 0.064-0.387-0.193-0.645-0.58-0.773zM5.545 16.226c-0.322 0.129-0.451 0.387-0.451 0.644s0.129 0.451 0.451 0.58c0-0.387 0-0.773 0-1.225zM26.877 17.45c0.322-0.129 0.451-0.322 0.451-0.645 0-0.258-0.129-0.451-0.451-0.58 0 0.451 0 0.838 0 1.225z"></path>
</symbol>
<symbol id="icon-login" viewBox="0 0 32 32">
<path fill="#fff" style="fill: var(--color1, #fff)" d="M2.514 21.117c-0.814 0.309-1.23 1.223-0.843 2.003 1.381 2.78 3.547 5.109 6.246 6.689 3.154 1.846 6.844 2.557 10.458 2.015s6.933-2.305 9.406-4.996 3.95-6.146 4.186-9.793c0.236-3.647-0.783-7.264-2.888-10.251s-5.169-5.163-8.683-6.167-7.265-0.775-10.63 0.649c-2.88 1.218-5.328 3.249-7.057 5.828-0.485 0.723-0.19 1.683 0.577 2.094s1.715 0.115 2.216-0.596c1.376-1.949 3.274-3.486 5.491-4.424 2.703-1.143 5.715-1.327 8.537-0.521s5.282 2.554 6.973 4.953 2.509 5.304 2.319 8.232c-0.19 2.928-1.376 5.703-3.362 7.864s-4.651 3.576-7.553 4.012c-2.902 0.436-5.866-0.135-8.398-1.618-2.077-1.216-3.761-2.985-4.874-5.095-0.406-0.77-1.307-1.185-2.121-0.877z"></path>
<path fill="#fff" style="fill: var(--color1, #fff)" d="M2 14.748c-0.692 0-1.252 0.561-1.252 1.252s0.561 1.252 1.252 1.252v-2.504zM22.885 16.885c0.489-0.489 0.489-1.282 0-1.771l-7.969-7.969c-0.489-0.489-1.282-0.489-1.771 0s-0.489 1.282 0 1.771l7.083 7.083-7.083 7.083c-0.489 0.489-0.489 1.282 0 1.771s1.282 0.489 1.771 0l7.969-7.969zM2 17.252h20v-2.504h-20v2.504z"></path>
</symbol>
<symbol id="icon-logo" viewBox="0 0 61 32">
<path fill="#000" style="fill: var(--color3, #000)" d="M60.416 16.098c0 8.451-13.525 15.303-30.208 15.303s-30.208-6.851-30.208-15.303c0-8.451 13.525-15.303 30.208-15.303s30.208 6.851 30.208 15.303z"></path>
<path fill="#fff" style="fill: var(--color1, #fff)" d="M39.813 20.345v-17.009c0-0.26 0.015-0.543 0.045-0.849 0.060-0.306 0.121-0.62 0.181-0.941l-27.731 18.799h27.504zM65.482 20.345v1.194c0 0.168-0.106 0.306-0.317 0.413-0.181 0.092-0.483 0.138-0.906 0.138h-20.64v9.319h-3.806v-9.319h-30.314c-0.453 0-0.8-0.046-1.042-0.138-0.242-0.107-0.408-0.245-0.498-0.413l-0.408-1.079 32.217-21.577h3.852v21.462h21.863z"></path>
</symbol>
<symbol id="icon-logo-text" viewBox="0 0 216 32">
<path fill="#54618e" style="fill: var(--color4, #54618e)" d="M8.258 30.994c-1.020 0-2.195-0.156-3.527-0.467l-4.207-1.147 1.147-3.442c2.379 0.85 4.362 1.275 5.949 1.275 0.85 0 1.558-0.198 2.125-0.595s0.85-0.935 0.85-1.615c0-0.68-0.184-1.19-0.552-1.53s-1.048-0.637-2.040-0.892l-2.294-0.595c-3.173-0.821-4.759-2.691-4.759-5.609 0-1.756 0.666-3.201 1.997-4.334 1.36-1.133 3.13-1.7 5.311-1.7 0.878 0 1.912 0.156 3.102 0.467l4.207 1.147-1.147 3.442c-2.295-0.85-4.037-1.275-5.226-1.275-0.793 0-1.459 0.212-1.997 0.637-0.538 0.397-0.807 0.921-0.807 1.572 0 0.68 0.184 1.19 0.552 1.53s1.048 0.637 2.040 0.892l2.252 0.595c1.7 0.453 2.918 1.147 3.654 2.082 0.737 0.907 1.105 2.082 1.105 3.527 0 1.728-0.651 3.173-1.955 4.334-1.303 1.133-3.229 1.7-5.779 1.7zM26.43 30.994c-2.125 0-3.626-0.524-4.504-1.572-0.85-1.048-1.275-2.649-1.275-4.801v-10.155h-3.144v-3.739h3.144v-4.971l5.396-1.062v6.034h4.674v3.739h-4.674v10.24c0 1.671 0.68 2.507 2.040 2.507 0.821 0 1.7-0.255 2.634-0.765l0.85 3.187c-1.558 0.907-3.272 1.36-5.141 1.36zM39.661 30.994c-1.926 0-3.456-0.595-4.589-1.785s-1.7-2.606-1.7-4.249c0-1.218 0.397-2.195 1.19-2.932 0.821-0.765 2.096-1.36 3.824-1.785l6.841-1.7v-1.742c0-0.822-0.255-1.473-0.765-1.955-0.482-0.481-1.161-0.722-2.040-0.722-0.991 0-3.229 0.751-6.713 2.252l-1.487-3.442 4.844-1.785c1.473-0.538 2.549-0.807 3.229-0.807 2.578 0 4.603 0.68 6.076 2.040 1.501 1.331 2.252 3.088 2.252 5.269v7.308c0 0.538 0.085 1.345 0.255 2.422 0.198 1.048 0.453 1.94 0.765 2.677l-4.631 0.935c-0.567-0.623-1.161-1.487-1.785-2.592-1.898 1.728-3.753 2.592-5.566 2.592zM41.573 27.213c1.105 0 2.323-0.637 3.654-1.912v-4.291l-4.249 1.232c-1.36 0.397-2.039 1.147-2.039 2.252 0 0.85 0.241 1.515 0.722 1.997s1.119 0.722 1.912 0.722zM61.847 30.994c-2.125 0-3.626-0.524-4.504-1.572-0.85-1.048-1.275-2.649-1.275-4.801v-10.155h-3.144v-3.739h3.144v-4.971l5.396-1.062v6.034h4.674v3.739h-4.674v10.24c0 1.671 0.68 2.507 2.039 2.507 0.821 0 1.7-0.255 2.634-0.765l0.85 3.187c-1.558 0.907-3.272 1.36-5.141 1.36zM121.859 30.612h-5.396v-11.6c0-1.7-0.255-2.932-0.765-3.697-0.482-0.793-1.261-1.19-2.337-1.19s-2.238 0.637-3.484 1.912v14.574h-5.396v-11.6c0-1.7-0.241-2.932-0.722-3.697-0.482-0.793-1.275-1.19-2.379-1.19-1.048 0-2.209 0.637-3.484 1.912v14.574h-5.396v-14.234c0-0.538-0.099-1.331-0.297-2.379-0.17-1.076-0.411-1.983-0.722-2.719l4.589-0.935c0.595 0.595 1.204 1.459 1.827 2.592 1.785-1.728 3.64-2.592 5.566-2.592 2.861 0 4.801 1.006 5.821 3.017 0.623-0.822 1.515-1.53 2.677-2.125s2.323-0.892 3.484-0.892c2.153 0 3.753 0.623 4.801 1.87 1.076 1.246 1.615 3.187 1.615 5.821v12.577zM131.656 30.994c-1.926 0-3.456-0.595-4.589-1.785s-1.7-2.606-1.7-4.249c0-1.218 0.397-2.195 1.19-2.932 0.821-0.765 2.096-1.36 3.824-1.785l6.842-1.7v-1.742c0-0.822-0.256-1.473-0.765-1.955-0.481-0.481-1.161-0.722-2.040-0.722-0.991 0-3.229 0.751-6.713 2.252l-1.487-3.442 4.844-1.785c1.473-0.538 2.55-0.807 3.23-0.807 2.577 0 4.603 0.68 6.076 2.040 1.501 1.331 2.252 3.088 2.252 5.269v7.308c0 0.538 0.084 1.345 0.255 2.422 0.199 1.048 0.453 1.94 0.765 2.677l-4.632 0.935c-0.567-0.623-1.161-1.487-1.784-2.592-1.899 1.728-3.753 2.592-5.567 2.592zM133.568 27.213c1.104 0 2.323-0.637 3.655-1.912v-4.291l-4.25 1.232c-1.36 0.397-2.039 1.147-2.039 2.252 0 0.85 0.241 1.515 0.722 1.997s1.119 0.722 1.912 0.722zM152.855 30.612h-5.396v-14.234c0-0.538-0.1-1.331-0.297-2.379-0.171-1.076-0.411-1.983-0.723-2.719l4.589-0.935c0.877 0.878 1.487 2.068 1.827 3.569 0.567-1.133 1.317-2.011 2.252-2.634 0.963-0.623 1.997-0.935 3.101-0.935 0.624 0 1.191 0.099 1.7 0.297l-0.935 4.631h-1.403c-1.331 0-2.379 0.326-3.144 0.977-0.736 0.623-1.26 1.671-1.572 3.144v11.217zM180.915 30.612h-6.629l-6.585-10.283v10.283h-5.397v-28.384l5.397-1.062v17.676l6.713-8.116h6.076l-7.988 8.88 8.413 11.005zM190.587 30.994c-3.201 0-5.623-0.949-7.267-2.847-1.615-1.926-2.421-4.447-2.421-7.563s0.836-5.595 2.507-7.436c1.672-1.87 3.995-2.804 6.968-2.804 5.751 0 8.627 2.989 8.627 8.966 0 0.623-0.072 1.147-0.213 1.572h-12.321c0 2.125 0.381 3.711 1.147 4.759 0.793 1.048 1.884 1.572 3.272 1.572 1.557 0 3.597-0.567 6.119-1.7l1.487 3.442-4.504 1.657c-0.765 0.255-1.897 0.382-3.399 0.382zM190.076 14.126c-1.133 0-2.025 0.397-2.676 1.19-0.624 0.793-0.935 1.785-0.935 2.974h6.925c0-2.776-1.105-4.164-3.315-4.164zM209.58 30.994c-2.124 0-3.625-0.524-4.504-1.572-0.849-1.048-1.275-2.649-1.275-4.801v-10.155h-3.144v-3.739h3.144v-4.971l5.397-1.062v6.034h4.673v3.739h-4.673v10.24c0 1.671 0.679 2.507 2.039 2.507 0.821 0 1.7-0.255 2.635-0.765l0.849 3.187c-1.557 0.907-3.271 1.36-5.141 1.36z"></path>
<path fill="#d653d2" style="fill: var(--color5, #d653d2)" d="M86.337 30.612h-5.141v-6.544h-11.6l-1.147-3.314 12.11-17.336h5.779v16.656h2.719v3.994h-2.719v6.544zM81.196 20.074v-11.048l-7.521 11.048h7.521z"></path>
</symbol>
<symbol id="icon-materials" viewBox="0 0 36 32">
<path fill="#fff" style="fill: var(--color1, #fff)" d="M2.381 27.981h16.074v1.786c0 0.986 0.8 1.786 1.786 1.786h2.381c0.521 0 1.014-0.233 1.349-0.623 0.009 0 0.019 0 0.028-0.009 0.437 0.409 1.005 0.633 1.6 0.633h7.144c0.986 0 1.786-0.8 1.786-1.786 0-0.307-0.084-0.614-0.242-0.874 0.809-0.502 1.079-1.553 0.595-2.381 0.447-0.279 0.744-0.744 0.819-1.265s-0.093-1.051-0.447-1.433c0.474-0.521 0.595-1.274 0.307-1.916s-0.93-1.060-1.637-1.060h-1.786v-18.456c0-1.312-1.070-2.381-2.381-2.381h-27.377c-1.312 0-2.381 1.070-2.381 2.381v23.219c0 1.312 1.070 2.381 2.381 2.381zM22.623 30.363h-2.381c-0.326 0-0.595-0.27-0.595-0.595v-5.358c0-0.326 0.27-0.595 0.595-0.595h2.381c0.326 0 0.595 0.27 0.595 0.595v5.358c0 0.326-0.27 0.595-0.595 0.595zM34.53 22.623c0 0.326-0.27 0.595-0.595 0.595h-1.786c-0.326 0-0.595 0.27-0.595 0.595s0.27 0.595 0.595 0.595h1.786c0.326 0 0.595 0.27 0.595 0.595s-0.27 0.595-0.595 0.595h-1.786c-0.326 0-0.595 0.27-0.595 0.595s0.27 0.595 0.595 0.595h1.191c0.326 0 0.595 0.27 0.595 0.595s-0.27 0.595-0.595 0.595h-1.191c-0.326 0-0.595 0.27-0.595 0.595s0.27 0.595 0.595 0.595h0.595c0.326 0 0.595 0.27 0.595 0.595s-0.27 0.595-0.595 0.595h-7.144c-0.66 0-1.191-0.53-1.191-1.191v-5.014c0.744-0.465 1.302-1.181 1.581-2.009 0.53-1.591 0.8-3.256 0.8-4.93 0-0.084 0.056-0.149 0.13-0.177 0.205-0.037 0.735-0.13 1.237 0.856 0.279 0.567 0.419 1.191 0.409 1.833v1.702c0 0.326 0.27 0.595 0.595 0.595h4.763c0.335 0 0.605 0.27 0.605 0.595zM29.767 20.837v-1.107c0.009-0.819-0.177-1.637-0.54-2.372-0.586-1.144-1.479-1.674-2.512-1.488-0.651 0.121-1.116 0.688-1.116 1.349 0 1.544-0.251 3.088-0.735 4.558-0.186 0.549-0.549 1.014-1.033 1.34-0.326-0.307-0.763-0.474-1.209-0.484h-2.381c-0.986 0-1.786 0.8-1.786 1.786v2.381h-16.074c-0.66 0-1.191-0.53-1.191-1.191v-19.656h29.767v14.884h-1.191zM2.381 1.191h27.386c0.66 0 1.191 0.53 1.191 1.191v2.381h-29.767v-2.381c0-0.66 0.53-1.191 1.191-1.191z"></path>
<path fill="#fff" style="fill: var(--color1, #fff)" d="M3.571 2.976c0 0.326-0.27 0.595-0.595 0.595s-0.595-0.27-0.595-0.595c0-0.326 0.27-0.595 0.595-0.595s0.595 0.27 0.595 0.595z"></path>
<path fill="#fff" style="fill: var(--color1, #fff)" d="M5.954 2.976c0 0.326-0.27 0.595-0.595 0.595s-0.595-0.27-0.595-0.595c0-0.326 0.27-0.595 0.595-0.595s0.595 0.27 0.595 0.595z"></path>
<path fill="#fff" style="fill: var(--color1, #fff)" d="M8.335 2.976c0 0.326-0.27 0.595-0.595 0.595s-0.595-0.27-0.595-0.595c0-0.326 0.27-0.595 0.595-0.595s0.595 0.27 0.595 0.595z"></path>
<path fill="#fff" style="fill: var(--color1, #fff)" d="M4.763 18.456h9.526c0.986 0 1.786-0.8 1.786-1.786v-7.144c0-0.986-0.8-1.786-1.786-1.786h-9.526c-0.986 0-1.786 0.8-1.786 1.786v7.144c0 0.986 0.8 1.786 1.786 1.786zM6.223 17.265l2.753-4.335 1.321 1.656-1.693 2.679h-2.381zM14.288 17.265h-4.27l3.135-4.93 1.73 2.167v2.177c0 0.316-0.27 0.586-0.595 0.586zM4.167 9.526c0-0.326 0.27-0.595 0.595-0.595h9.526c0.326 0 0.595 0.27 0.595 0.595v3.070l-1.321-1.656c-0.121-0.149-0.307-0.233-0.493-0.223-0.195 0.009-0.363 0.112-0.474 0.279l-1.609 2.53-1.591-1.991c-0.121-0.149-0.307-0.233-0.493-0.223-0.195 0.009-0.363 0.112-0.474 0.279l-3.609 5.674h-0.056c-0.326 0-0.595-0.27-0.595-0.595v-7.144z"></path>
<path fill="#fff" style="fill: var(--color1, #fff)" d="M6.548 10.716c0 0.326-0.27 0.595-0.595 0.595s-0.595-0.27-0.595-0.595c0-0.326 0.27-0.595 0.595-0.595s0.595 0.27 0.595 0.595z"></path>
<path fill="#fff" style="fill: var(--color1, #fff)" d="M28.577 8.334h-10.121c-0.326 0-0.595 0.27-0.595 0.595s0.27 0.595 0.595 0.595h10.121c0.326 0 0.595-0.27 0.595-0.595s-0.27-0.595-0.595-0.595z"></path>
<path fill="#fff" style="fill: var(--color1, #fff)" d="M28.577 10.717h-10.121c-0.326 0-0.595 0.27-0.595 0.595s0.27 0.595 0.595 0.595h10.121c0.326 0 0.595-0.27 0.595-0.595s-0.27-0.595-0.595-0.595z"></path>
<path fill="#fff" style="fill: var(--color1, #fff)" d="M28.577 13.097h-10.121c-0.326 0-0.595 0.27-0.595 0.595s0.27 0.595 0.595 0.595h10.121c0.326 0 0.595-0.27 0.595-0.595s-0.27-0.595-0.595-0.595z"></path>
<path fill="#fff" style="fill: var(--color1, #fff)" d="M23.814 15.48h-5.358c-0.326 0-0.595 0.27-0.595 0.595s0.27 0.595 0.595 0.595h5.358c0.326 0 0.595-0.27 0.595-0.595s-0.27-0.595-0.595-0.595z"></path>
<path fill="#fff" style="fill: var(--color1, #fff)" d="M17.265 20.837h-13.693c-0.326 0-0.595 0.27-0.595 0.595s0.27 0.595 0.595 0.595h13.693c0.326 0 0.595-0.27 0.595-0.595s-0.27-0.595-0.595-0.595z"></path>
<path fill="#fff" style="fill: var(--color1, #fff)" d="M15.479 23.218h-11.907c-0.326 0-0.595 0.27-0.595 0.595s0.27 0.595 0.595 0.595h11.907c0.326 0 0.595-0.27 0.595-0.595s-0.27-0.595-0.595-0.595z"></path>
</symbol>
<symbol id="icon-phone" viewBox="0 0 34 32">
<path d="M22.101 22.445l2.721-2.721c0.366-0.362 0.83-0.61 1.335-0.713s1.028-0.058 1.508 0.13l3.316 1.324c0.484 0.197 0.9 0.532 1.194 0.965s0.453 0.942 0.458 1.465v6.073c-0.003 0.356-0.078 0.707-0.22 1.033s-0.349 0.62-0.608 0.864c-0.259 0.244-0.564 0.433-0.898 0.556s-0.689 0.177-1.044 0.159c-23.235-1.445-27.923-21.122-28.81-28.652-0.041-0.37-0.004-0.744 0.11-1.098s0.302-0.68 0.55-0.957c0.249-0.277 0.554-0.497 0.894-0.647s0.709-0.227 1.081-0.225h5.866c0.524 0.002 1.035 0.16 1.467 0.454s0.768 0.712 0.962 1.198l1.324 3.316c0.195 0.477 0.244 1.002 0.143 1.507s-0.35 0.97-0.714 1.335l-2.721 2.721c0 0 1.567 10.603 12.085 11.915z"></path>
</symbol>
<symbol id="icon-target" viewBox="0 0 32 32">
<path fill="#fff" style="fill: var(--color1, #fff)" d="M23.25 9.7c-0.9 0.9-1.8 1.8-2.75 2.75 1.1 1.45 1.5 3.1 1.1 4.9-0.35 1.4-1.15 2.55-2.35 3.35-2.35 1.65-5.5 1.3-7.45-0.8-2-2.15-2.1-5.3-0.2-7.55 1.7-2.050 5-3.050 7.95-0.9 0.9-0.9 1.8-1.8 2.7-2.75-1.6-1.35-3.45-2.15-5.65-2.3 0 0.6 0 1.15 0 1.75 0 0.5-0.25 0.8-0.65 0.8s-0.65-0.3-0.65-0.8c0-1.3 0-2.55 0-3.85 0-0.15 0-0.3 0-0.45-1.25 0.050-2.45 0.3-3.6 0.75-4 1.6-6.55 4.5-7.6 8.7 0 0.1-0.050 0.15-0.050 0.25-0.1 0.35-0.4 0.55-0.75 0.5-0.35-0.1-0.55-0.4-0.5-0.8 0.35-1.8 1.050-3.45 2.1-4.9 2.5-3.35 5.75-5.3 9.9-5.7 0.15 0 0.35-0.050 0.55-0.050 0-0.55 0-1.15 0-1.7 0-0.6 0.2-0.9 0.65-0.9 0.4 0 0.65 0.3 0.65 0.85 0 1.3 0 2.55 0 3.85 0 0.15 0 0.3 0 0.45 2.5 0.2 4.7 1.1 6.55 2.7 0.3-0.3 0.55-0.6 0.9-0.95-0.65-0.45-1.25-0.95-1.95-1.35-1.1-0.65-2.25-1.15-3.5-1.4-0.1 0-0.2-0.050-0.25-0.050-0.35-0.1-0.55-0.45-0.45-0.8s0.4-0.55 0.8-0.45c1.6 0.3 3.050 0.9 4.4 1.8 0.65 0.45 1.25 0.9 2 1.45 0.050-0.2 0.2-0.35 0.2-0.5 0-0.7 0-1.35 0-2.050 0-0.25 0.1-0.55 0.3-0.7 0.8-0.85 1.65-1.7 2.5-2.55 0.25-0.25 0.5-0.35 0.8-0.2 0.3 0.1 0.4 0.4 0.4 0.7 0 0.65 0 1.25 0 1.95 0.65 0 1.3 0 1.95 0 0.35 0 0.6 0.1 0.75 0.4 0.1 0.35 0 0.6-0.25 0.8-0.85 0.8-1.65 1.65-2.45 2.45-0.2 0.2-0.5 0.3-0.75 0.3-0.65 0.050-1.35 0-2 0-0.15 0-0.35 0.15-0.55 0.2 1.1 1.25 1.9 2.5 2.5 3.95s0.9 2.9 1 4.5c0.6 0 1.2 0 1.75 0 0.5 0 0.8 0.25 0.8 0.65s-0.3 0.65-0.8 0.65c-1.3 0-2.6 0-3.9 0-0.15 0-0.3 0-0.35 0-0.3 1.1-0.45 2.2-0.85 3.2-1.3 3.35-3.7 5.55-7.15 6.6-0.1 0-0.15 0.050-0.25 0.050-0.4 0.1-0.7-0.1-0.8-0.45s0.1-0.65 0.5-0.8c0.25-0.1 0.5-0.15 0.7-0.25 3.8-1.45 5.95-4.25 6.4-8.25 0-0.050 0-0.050 0-0.15-0.55 0-1.15 0-1.7 0-0.5 0-0.8-0.25-0.8-0.65s0.3-0.65 0.8-0.65c1.3 0 2.55 0 3.85 0 0.15 0 0.3 0 0.45 0-0.2-2.85-1.2-5.35-3.050-7.45-0.3 0.3-0.6 0.6-0.9 0.9 0.050 0.050 0.1 0.15 0.2 0.25 0.95 1.15 1.65 2.45 2.050 3.9 0.2 0.6 0.050 0.95-0.35 1.1-0.4 0.1-0.7-0.15-0.85-0.7-0.5-1.3-1.15-2.5-2.050-3.6zM18.6 12.45c-1.5-1.25-4.1-1.35-5.85 0.45-1.7 1.8-1.7 4.45 0.050 6.2s4.45 1.8 6.2 0.1c1.8-1.7 1.8-4.3 0.5-5.9-0.25 0.25-0.45 0.45-0.7 0.7-0.2 0.15-0.15 0.3-0.050 0.5 0.35 0.7 0.5 1.4 0.3 2.15-0.4 1.75-2.2 2.85-3.9 2.4-1.75-0.45-2.8-2.3-2.3-4 0.55-1.75 2.4-2.8 4.050-2.1 0.7 0.3 1.1 0.1 1.45-0.4 0.15 0 0.2-0.050 0.25-0.1zM17.7 15.15c-0.45 0.45-0.85 0.9-1.25 1.3-0.25 0.25-0.6 0.25-0.85 0s-0.3-0.55-0.1-0.85c0.1-0.1 0.2-0.2 0.3-0.3 0.35-0.35 0.7-0.7 1.050-1.050-0.95-0.4-1.9-0.1-2.4 0.65s-0.4 1.75 0.25 2.4c0.65 0.65 1.6 0.75 2.4 0.25 0.7-0.5 1-1.45 0.6-2.4zM26.6 5.4c0.55 0 1.050 0 1.55 0 0.1 0 0.25 0 0.3-0.050 0.4-0.4 0.85-0.85 1.35-1.35-0.45 0-0.8 0-1.1 0-0.45 0-0.7-0.25-0.7-0.7 0-0.35 0-0.7 0-1.15-0.5 0.5-0.9 0.9-1.3 1.3-0.050 0.050-0.1 0.15-0.1 0.25-0.050 0.6 0 1.1 0 1.7z"></path>
<path fill="#fff" style="fill: var(--color1, #fff)" d="M2.5 16.65c-0.55 0-1.15 0-1.75 0-0.5 0-0.8-0.25-0.8-0.65s0.3-0.6 0.75-0.65c1.45 0 2.85 0 4.3 0 0.2-0.85 0.3-1.65 0.55-2.45 0.2-0.65 0.5-1.3 0.75-1.9 0.2-0.4 0.55-0.55 0.9-0.35s0.45 0.55 0.2 0.95c-0.6 1.2-1 2.45-1.050 3.8 0.55 0 1.050 0 1.6 0 0.6 0 0.9 0.2 0.95 0.65 0 0.45-0.3 0.65-0.95 0.65-1.25 0-2.45 0-3.7 0-0.15 0-0.3 0-0.45 0 0.050 1.050 0.2 2.050 0.55 3 1.5 4.35 4.45 7.1 8.9 8.2 0.15 0.050 0.35 0.1 0.5 0.2 0.25 0.2 0.35 0.45 0.2 0.75s-0.4 0.45-0.75 0.4c-1.55-0.35-3.050-0.9-4.4-1.75-3.6-2.5-5.7-5.9-6.2-10.3 0-0.15-0.050-0.3-0.050-0.45 0 0 0-0.050-0.050-0.1z"></path>
<path fill="#fff" style="fill: var(--color1, #fff)" d="M16.65 29.45c0 0.6 0 1.15 0 1.75 0 0.5-0.25 0.8-0.65 0.8s-0.65-0.3-0.65-0.8c0-1.3 0-2.6 0-3.9 0-0.15 0-0.3 0-0.4-0.65-0.1-1.25-0.2-1.85-0.35-4.050-1.050-6.7-3.55-7.95-7.55-0.050-0.15-0.1-0.25-0.1-0.4 0-0.35 0.15-0.55 0.45-0.65s0.6 0 0.75 0.3c0.050 0.15 0.1 0.3 0.15 0.45 1.1 3.8 4.65 6.7 8.55 6.85 0-0.55 0-1.15 0-1.7 0-0.5 0.25-0.8 0.6-0.8 0.4 0 0.65 0.3 0.65 0.8 0 1.25 0 2.55 0 3.8 0 0.15 0 0.3 0 0.55 0.8-0.15 1.6-0.25 2.35-0.4 1.35-0.3 2.55-0.85 3.7-1.6 0.1-0.050 0.2-0.15 0.3-0.2 0.3-0.1 0.55-0.050 0.75 0.2s0.15 0.55-0.050 0.75c-0.1 0.1-0.25 0.2-0.4 0.3-1.95 1.25-4.1 1.95-6.4 2.15 0 0-0.1 0.050-0.2 0.050z"></path>
<path fill="#fff" style="fill: var(--color1, #fff)" d="M26.9 23.55c-0.65 0-0.9-0.5-0.65-1.050 0.45-0.9 0.9-1.85 1.3-2.8 0.15-0.4 0.25-0.85 0.35-1.25s0.4-0.6 0.75-0.55c0.35 0.1 0.55 0.4 0.5 0.85-0.3 1.6-0.9 3.050-1.8 4.4-0.15 0.2-0.35 0.35-0.45 0.4z"></path>
<path fill="#fff" style="fill: var(--color1, #fff)" d="M10.25 8.15c-0.15-0.15-0.4-0.3-0.5-0.55-0.15-0.3 0.050-0.55 0.3-0.75 0.95-0.6 2-1.1 3.1-1.35 0.35-0.1 0.6 0 0.75 0.3 0.2 0.35 0.050 0.8-0.35 0.95-1.050 0.3-2 0.7-2.9 1.3-0.050 0-0.15 0-0.4 0.1z"></path>
<path fill="#fff" style="fill: var(--color1, #fff)" d="M9.1 9.1c0 0.35-0.3 0.6-0.65 0.6s-0.6-0.3-0.6-0.65c0-0.35 0.3-0.6 0.65-0.6 0.3 0 0.6 0.3 0.6 0.65z"></path>
<path fill="#fff" style="fill: var(--color1, #fff)" d="M25.8 24.9c0 0.35-0.3 0.65-0.65 0.65s-0.65-0.25-0.65-0.6c0-0.35 0.25-0.65 0.6-0.65 0.4 0 0.7 0.25 0.7 0.6z"></path>
</symbol>
<symbol id="icon-wallet" viewBox="0 0 33 32">
<path fill="#cf51ce" style="fill: var(--color2, #cf51ce)" d="M0 29.328c0-4.545 0-9.038 0-13.583 0.204-0.664 0.715-1.021 1.277-1.328 0.204-0.102 0.409-0.204 0.613-0.255 0.255-0.051 0.306-0.204 0.306-0.409 0-3.217 0-6.383 0-9.6 0-2.298 1.634-3.983 3.83-3.983 7.557 0 15.166 0 22.723 0 1.072 0 1.736 0.664 1.736 1.787 0 1.481 0 2.962 0 4.443 0 0.102 0 0.255 0 0.357 1.532 0.511 2.196 1.379 2.196 2.962 0 5.26 0 10.57 0 15.83 0 0.306 0 0.613-0.102 0.919-0.306 1.226-1.379 2.043-2.757 2.043-4.545 0-9.038 0-13.583 0-0.153 0-0.255 0-0.409 0 0 0.051 0 0.051 0 0.051 0 0.051 0 0.102 0 0.153 0.051 0.766-0.306 1.328-0.97 1.685-0.562 0.306-1.174 0.562-1.736 0.715-1.634 0.46-3.37 0.613-5.055 0.613-1.992 0-3.983-0.153-5.923-0.817-0.919-0.255-1.787-0.613-2.145-1.583zM31.608 14.877c0-0.153 0-0.255 0-0.357 0-1.634 0-3.268 0-4.902 0-1.174-0.664-1.838-1.838-1.838-7.864 0-15.779 0-23.643 0-1.021 0-1.94-0.306-2.706-0.97-0.051-0.051-0.102-0.051-0.153-0.102 0 2.349 0 4.647 0 6.945 0.102 0 0.204 0 0.306-0.051 2.706-0.562 5.413-0.562 8.17-0.102 1.072 0.153 2.145 0.46 3.115 1.021 0.613 0.46 0.97 0.97 0.97 1.787-0.051 3.574 0 7.098 0 10.672 0 0.153 0 0.255 0 0.409 0.102 0 0.204 0 0.306 0 4.596 0 9.14 0 13.736 0 1.072 0 1.787-0.664 1.787-1.787 0-1.634 0-3.319 0-4.953 0-0.102 0-0.204 0-0.306-0.868 0-1.736 0-2.553 0-0.409 0-0.817-0.051-1.226-0.204-1.174-0.46-1.838-1.787-1.583-3.013 0.255-1.277 1.328-2.196 2.604-2.196 0.817-0.051 1.736-0.051 2.706-0.051zM29.413 4.511c-0.153 0-0.306 0-0.46 0-7.915 0-15.881 0-23.796 0-0.562 0-0.817-0.204-0.817-0.562s0.255-0.562 0.817-0.562c7.915 0 15.881 0 23.796 0 0.153 0 0.255 0 0.46 0 0-0.511 0-0.97 0-1.379 0-0.613-0.153-0.766-0.766-0.766-7.506 0-14.962 0-22.468 0-0.255 0-0.511 0-0.715 0.051-1.379 0.306-2.298 1.583-2.196 2.86 0.153 1.43 1.277 2.502 2.706 2.502 7.711 0 15.421 0 23.183 0 0.102 0 0.153 0 0.255-0.051 0-0.613 0-1.328 0-2.094zM7.915 14.315c-1.532 0-3.064 0.102-4.545 0.511-0.664 0.204-1.328 0.46-1.94 0.766-0.46 0.255-0.46 0.511 0 0.766 0.357 0.204 0.715 0.357 1.072 0.511 1.174 0.409 2.349 0.562 3.574 0.664 2.145 0.153 4.289 0.102 6.434-0.409 0.613-0.153 1.226-0.409 1.838-0.715 0.511-0.255 0.511-0.562 0-0.868-0.306-0.204-0.664-0.357-1.021-0.46-1.787-0.613-3.574-0.715-5.413-0.766zM1.072 17.481c0 0.46 0.051 0.919 0 1.379-0.051 0.409 0.153 0.715 0.511 0.868 0.766 0.255 1.481 0.613 2.298 0.766 2.145 0.46 4.289 0.46 6.485 0.255 1.226-0.102 2.4-0.357 3.574-0.817 0.562-0.255 0.919-0.562 0.817-1.277-0.051-0.357 0-0.766 0-1.123-4.443 1.583-9.396 1.583-13.685-0.051zM1.072 24.017c0 0.511 0.051 0.97 0 1.43 0 0.409 0.153 0.664 0.46 0.766 0.562 0.255 1.123 0.511 1.736 0.664 2.86 0.715 5.77 0.664 8.681 0.153 0.817-0.153 1.634-0.357 2.349-0.817 0.153-0.102 0.409-0.255 0.409-0.46 0.051-0.562 0-1.174 0-1.787-2.196 1.021-4.494 1.226-6.792 1.226-2.349 0.051-4.647-0.153-6.843-1.174zM1.072 27.285c0 0.511 0 0.97 0 1.481 0 0.357 0.102 0.613 0.409 0.766 0.562 0.255 1.072 0.511 1.634 0.664 2.911 0.715 5.872 0.715 8.834 0.153 0.766-0.153 1.532-0.511 2.298-0.766 0.153-0.051 0.409-0.255 0.409-0.409 0.051-0.562 0-1.174 0-1.787-4.289 1.532-9.294 1.532-13.583-0.102zM14.706 20.749c-2.196 1.021-4.494 1.226-6.792 1.226s-4.647-0.204-6.792-1.226c0 0.562 0 1.072 0 1.583 0 0.255 0.102 0.46 0.306 0.562 0.409 0.204 0.817 0.409 1.226 0.562 1.328 0.46 2.757 0.613 4.136 0.664 1.94 0.102 3.881 0 5.77-0.511 0.613-0.153 1.226-0.46 1.787-0.715 0.153-0.051 0.357-0.306 0.357-0.46 0-0.511 0-1.072 0-1.685zM31.557 19.217c0-1.123 0-2.196 0-3.268-0.97 0-1.889 0-2.808 0-0.817 0.051-1.481 0.766-1.481 1.583s0.613 1.583 1.43 1.634c0.919 0.102 1.889 0.051 2.86 0.051z"></path>
<path fill="#cf51ce" style="fill: var(--color2, #cf51ce)" d="M25.89 9.975c-1.328 0-2.655 0-3.932 0-0.204 0-0.409-0.102-0.562-0.204-0.102-0.102-0.153-0.409-0.051-0.511 0.102-0.153 0.306-0.306 0.511-0.306 0.409-0.051 0.817 0 1.226 0 2.247 0 4.443 0 6.689 0 0.102 0 0.153 0 0.255 0 0.306 0.051 0.562 0.255 0.562 0.562s-0.255 0.511-0.562 0.511c-0.97 0-1.889 0-2.86 0-0.46-0.051-0.868-0.051-1.277-0.051z"></path>
<path fill="#cf51ce" style="fill: var(--color2, #cf51ce)" d="M19.046 9.975c-0.204 0-0.409 0-0.562 0-0.306 0-0.511-0.204-0.511-0.511s0.204-0.562 0.511-0.562c0.409 0 0.766 0 1.174 0 0.306 0 0.511 0.255 0.511 0.562s-0.255 0.511-0.562 0.511c-0.204 0-0.357 0-0.562 0z"></path>
<path fill="#cf51ce" style="fill: var(--color2, #cf51ce)" d="M28.85 18.145c-0.306 0-0.562-0.255-0.562-0.562s0.255-0.562 0.562-0.562c0.306 0 0.511 0.255 0.511 0.511 0.051 0.357-0.204 0.613-0.511 0.613z"></path>
</symbol>
</defs>
</svg>
